<svg width="14" height="16" viewBox="0 0 14 16" fill="none" xmlns="http://www.w3.org/2000/svg">
<path fill-rule="evenodd" clip-rule="evenodd" d="M3.25 1.95833C3.25 1.77583 5.13167 0.5 7 0.5C8.86833 0.5 10.75 1.77625 10.75 1.95833C10.75 2.60833 10.6808 2.99333 10.6225 3.20292C10.5837 3.34042 10.455 3.41667 10.3121 3.41667H3.68792C3.545 3.41667 3.41625 3.34042 3.3775 3.20292C3.31917 2.99333 3.25 2.60833 3.25 1.95833ZM6.375 1.75C6.26449 1.75 6.15851 1.7939 6.08037 1.87204C6.00223 1.95018 5.95833 2.05616 5.95833 2.16667C5.95833 2.27717 6.00223 2.38315 6.08037 2.46129C6.15851 2.53943 6.26449 2.58333 6.375 2.58333H7.625C7.73551 2.58333 7.84149 2.53943 7.91963 2.46129C7.99777 2.38315 8.04167 2.27717 8.04167 2.16667C8.04167 2.05616 7.99777 1.95018 7.91963 1.87204C7.84149 1.7939 7.73551 1.75 7.625 1.75H6.375Z" fill="white"/>
<path fill-rule="evenodd" clip-rule="evenodd" d="M3.68253 6.0075C2.29503 5.57833 2.64503 4.81167 3.1742 4.25H10.9417C11.365 4.79083 11.5921 5.52042 10.3125 5.95708C10.3648 6.42126 10.319 6.89124 10.178 7.33656C10.037 7.78188 9.80393 8.1926 9.49399 8.54207C9.18404 8.89154 8.80411 9.17196 8.37882 9.36516C7.95354 9.55836 7.49239 9.66002 7.02529 9.66354C6.55819 9.66706 6.09557 9.57237 5.66742 9.38561C5.23926 9.19885 4.85515 8.92418 4.53997 8.57943C4.22479 8.23467 3.98559 7.82752 3.83788 7.38438C3.69016 6.94124 3.63724 6.47199 3.68253 6.00708V6.0075ZM6.8867 6.33333C7.98753 6.33333 8.84086 6.275 9.49503 6.17333C9.51653 6.51305 9.46844 6.85358 9.35368 7.17405C9.23893 7.49452 9.05995 7.78818 8.82769 8.03703C8.59544 8.28588 8.31481 8.48468 8.00301 8.62125C7.69122 8.75781 7.35481 8.82926 7.01442 8.83122C6.67403 8.83318 6.33683 8.76561 6.02348 8.63265C5.71013 8.49968 5.42723 8.30413 5.19213 8.05797C4.95702 7.81181 4.77466 7.52023 4.65623 7.2011C4.53779 6.88197 4.48577 6.54202 4.50336 6.20208C5.11295 6.28625 5.8942 6.33333 6.8867 6.33333Z" fill="white"/>
<path fill-rule="evenodd" clip-rule="evenodd" d="M10.5071 12.4167C10.1302 11.8287 9.61145 11.3449 8.99858 11.01C8.38572 10.675 7.69844 10.4997 7.00001 10.5C6.30131 10.4996 5.61372 10.675 5.00061 11.0101C4.3875 11.3452 3.86859 11.8292 3.49168 12.4175C3.3518 12.2021 3.13697 12.0462 2.88877 11.98L2.08377 11.7646C1.81695 11.6931 1.53264 11.7304 1.29338 11.8685C1.05412 12.0066 0.879503 12.234 0.807932 12.5008L0.484599 13.7083C0.449187 13.8405 0.440152 13.9783 0.458009 14.1139C0.475866 14.2496 0.520266 14.3804 0.588673 14.4988C0.657081 14.6173 0.748155 14.7211 0.856696 14.8044C0.965236 14.8877 1.08912 14.9488 1.22127 14.9842L2.02585 15.2C2.16118 15.2365 2.3025 15.2451 2.44128 15.2255C2.58005 15.2059 2.71342 15.1584 2.83335 15.0858C2.83368 15.1963 2.8779 15.3022 2.95627 15.3801C3.03465 15.458 3.14076 15.5016 3.25127 15.5012C3.36177 15.5009 3.46762 15.4567 3.54553 15.3783C3.62343 15.3 3.66701 15.1938 3.66668 15.0833V14.6667C3.66668 14.5079 3.67793 14.3517 3.69918 14.1988L5.86751 14.78C5.96817 14.9954 6.12818 15.1777 6.32877 15.3054C6.52937 15.4331 6.76223 15.5009 7.00001 15.5009C7.2378 15.5009 7.47066 15.4331 7.67126 15.3054C7.87185 15.1777 8.03186 14.9954 8.13251 14.78L10.3008 14.1988C10.3221 14.3517 10.3333 14.5079 10.3333 14.6667V15.0833C10.3328 15.1938 10.3762 15.3 10.4539 15.3786C10.5317 15.4571 10.6374 15.5015 10.7479 15.5021C10.8584 15.5026 10.9646 15.4593 11.0432 15.3815C11.1217 15.3038 11.1661 15.198 11.1667 15.0875C11.4 15.2275 11.6883 15.2763 11.9721 15.2L12.7771 14.9846C12.9092 14.9492 13.0331 14.8881 13.1417 14.8048C13.2502 14.7216 13.3413 14.6177 13.4097 14.4992C13.4781 14.3808 13.5225 14.25 13.5404 14.1144C13.5582 13.9787 13.5492 13.8409 13.5138 13.7088L13.19 12.5013C13.1184 12.2344 12.9438 12.007 12.7046 11.8689C12.4653 11.7308 12.181 11.6935 11.9142 11.765L11.1092 11.9804C10.8615 12.0464 10.6471 12.2016 10.5071 12.4163V12.4167ZM3.91793 13.3946C4.14301 12.8502 4.50818 12.3752 4.97634 12.0177C5.44449 11.6602 5.99894 11.433 6.58335 11.3592V13.0713C6.39662 13.1375 6.22826 13.2471 6.09209 13.391C5.95592 13.5349 5.85582 13.7091 5.80002 13.8992L3.91793 13.395V13.3946ZM10.0821 13.3946C9.85698 12.8503 9.4918 12.3752 9.02365 12.0177C8.55551 11.6602 8.00107 11.433 7.41668 11.3592V13.0713C7.79335 13.2046 8.08751 13.5129 8.20001 13.8992L10.0821 13.395V13.3946ZM7.00001 14.6667C7.11052 14.6667 7.2165 14.6228 7.29464 14.5446C7.37278 14.4665 7.41668 14.3605 7.41668 14.25C7.41668 14.1395 7.37278 14.0335 7.29464 13.9554C7.2165 13.8772 7.11052 13.8333 7.00001 13.8333C6.88951 13.8333 6.78353 13.8772 6.70539 13.9554C6.62725 14.0335 6.58335 14.1395 6.58335 14.25C6.58335 14.3605 6.62725 14.4665 6.70539 14.5446C6.78353 14.6228 6.88951 14.6667 7.00001 14.6667Z" fill="white"/>
</svg>
