<svg width="20" height="20" viewBox="0 0 20 20" fill="none" xmlns="http://www.w3.org/2000/svg">
<g clip-path="url(#clip0_1005_1413)">
<path d="M14.6154 0C12.9161 0 11.5385 1.37923 11.5385 3.07692C11.5385 5.12692 14.2308 7.92769 14.2308 10.7454H15C15.0008 7.92769 17.6923 5.20769 17.6923 3.07692C17.6923 1.37923 16.3146 0 14.6154 0ZM14.6154 1.49077C14.8238 1.49087 15.0301 1.53202 15.2226 1.61186C15.4151 1.6917 15.59 1.80868 15.7373 1.95611C15.8846 2.10354 16.0014 2.27854 16.081 2.47111C16.1607 2.66369 16.2016 2.87006 16.2015 3.07846C16.2014 3.28686 16.1603 3.4932 16.0804 3.68569C16.0006 3.87819 15.8836 4.05307 15.7362 4.20036C15.5888 4.34765 15.4138 4.46446 15.2212 4.54411C15.0286 4.62377 14.8222 4.66472 14.6138 4.66462C14.1929 4.66441 13.7892 4.49698 13.4917 4.19916C13.1941 3.90134 13.0271 3.49752 13.0273 3.07654C13.0275 2.65556 13.1949 2.2519 13.4928 1.95437C13.7906 1.65683 14.1944 1.4898 14.6154 1.49V1.49077ZM10 1.53846C4.91 1.53846 0.769226 5.67923 0.769226 10.7692C0.769226 15.8592 4.91 20 10 20C15.09 20 19.2308 15.8592 19.2308 10.7692C19.2308 9.22308 18.8477 7.77231 18.1731 6.49C18.0708 6.69308 17.9677 6.88615 17.8608 7.09154C17.6585 7.48231 17.4454 7.87692 17.2592 8.26923C17.4515 8.81923 17.5838 9.40077 17.6438 10H16.6346C16.5792 10.2577 16.5385 10.5 16.5385 10.7454V11.5385H17.6446C17.5402 12.6229 17.2039 13.6723 16.6585 14.6154H14.4C14.5692 13.8938 14.6669 13.0962 14.7361 12.2838H13.2208C13.1491 13.0709 13.0127 13.8507 12.8131 14.6154H7.18692C6.92695 13.6086 6.7738 12.5773 6.73 11.5385H12.6915V10.7454C12.6856 10.4942 12.6534 10.2444 12.5954 10H6.73076C6.77457 8.96116 6.92772 7.92982 7.18769 6.92308H11.2985C11.0316 6.41923 10.7828 5.90609 10.5523 5.38462H7.71615C8.3523 3.93308 9.19307 3.07692 10 3.07692C10 2.54231 10.0961 2.04 10.2646 1.56231C10.1761 1.55923 10.0892 1.53846 10 1.53846ZM6.82692 3.77385C6.52058 4.28547 6.26303 4.82476 6.05769 5.38462H4.51923C5.18276 4.71023 5.9651 4.16415 6.82692 3.77385ZM3.34153 6.92308H5.6C5.36734 7.93358 5.23058 8.96379 5.19153 10H2.35538C2.4594 8.91546 2.79574 7.86603 3.34153 6.92308V6.92308ZM2.35538 11.5385H5.1923C5.23769 12.6346 5.37923 13.6692 5.60076 14.6154H3.34153C2.7964 13.6721 2.46011 12.6229 2.35538 11.5385ZM4.51923 16.1538H6.05769C6.27923 16.7508 6.53846 17.2869 6.82692 17.7646C5.9651 17.3743 5.18276 16.8282 4.51923 16.1538V16.1538ZM7.71615 16.1538H12.2838C11.6477 17.6054 10.8069 18.4615 10 18.4615C9.19307 18.4615 8.35153 17.6054 7.71615 16.1538ZM13.9423 16.1538H15.4808C14.8172 16.8282 14.0349 17.3743 13.1731 17.7646C13.4615 17.2877 13.7208 16.7515 13.9423 16.1538Z" fill="white"/>
</g>
<defs>
<clipPath id="clip0_1005_1413">
<rect width="20" height="20" fill="white"/>
</clipPath>
</defs>
</svg>
