<svg width="20" height="20" viewBox="0 0 20 20" fill="none" xmlns="http://www.w3.org/2000/svg">
<g clip-path="url(#clip0_1005_1425)">
<path d="M10.6333 11.0583C10.55 11.05 10.45 11.05 10.3583 11.0583C8.37499 10.9916 6.79999 9.36663 6.79999 7.36663C6.79999 5.32496 8.44999 3.66663 10.5 3.66663C12.5417 3.66663 14.2 5.32496 14.2 7.36663C14.1917 9.36663 12.6167 10.9916 10.6333 11.0583Z" fill="white"/>
<path d="M6.46666 14.1333C4.45 15.4833 4.45 17.6833 6.46666 19.0249C8.75833 20.5583 12.5167 20.5583 14.8083 19.0249C16.825 17.6749 16.825 15.4749 14.8083 14.1333C12.525 12.6083 8.76666 12.6083 6.46666 14.1333Z" fill="white"/>
<path opacity="0.4" d="M16.6333 8.05829C16.55 8.04996 16.45 8.04996 16.3583 8.05829C14.375 7.99163 12.8 6.36663 12.8 4.36663C12.8 2.32496 14.45 0.666626 16.5 0.666626C18.5417 0.666626 20.2 2.32496 20.2 4.36663C20.1917 6.36663 18.6167 7.99163 16.6333 8.05829Z" fill="white"/>
<path opacity="0.4" d="M12.4667 11.1333C10.45 12.4833 10.45 14.6833 12.4667 16.0249C14.7583 17.5583 18.5167 17.5583 20.8083 16.0249C22.825 14.6749 22.825 12.4749 20.8083 11.1333C18.525 9.60825 14.7667 9.60825 12.4667 11.1333Z" fill="white"/>
<path opacity="0.4" d="M4.63332 8.05829C4.54999 8.04996 4.44999 8.04996 4.35832 8.05829C2.37499 7.99163 0.799988 6.36663 0.799988 4.36663C0.799988 2.32496 2.44999 0.666626 4.49999 0.666626C6.54165 0.666626 8.19999 2.32496 8.19999 4.36663C8.19165 6.36663 6.61665 7.99163 4.63332 8.05829Z" fill="white"/>
<path opacity="0.4" d="M0.466663 11.1333C-1.55 12.4833 -1.55 14.6833 0.466663 16.0249C2.75833 17.5583 6.51666 17.5583 8.80833 16.0249C10.825 14.6749 10.825 12.4749 8.80833 11.1333C6.525 9.60825 2.76666 9.60825 0.466663 11.1333Z" fill="white"/>
</g>
<defs>
<clipPath id="clip0_1005_1425">
<rect width="20" height="20" fill="white"/>
</clipPath>
</defs>
</svg>
