<svg width="20" height="16" viewBox="0 0 20 16" fill="none" xmlns="http://www.w3.org/2000/svg">
<path d="M12.5 12.1259C13.6368 12.1399 14.2623 12.157 15.0051 12.157C19.4447 12.4181 19.091 7.34764 16.0121 7.1439C15.8659 7.13422 15.7638 6.98017 15.8123 6.8419C17.696 1.46822 8.28985 -1.366 6.71739 4.92117C6.69761 5.00028 6.63168 5.06421 6.55155 5.07929C4.13769 5.53345 3.04898 7.52524 3.3967 9.27943" stroke="white" stroke-width="1.5" stroke-linecap="round"/>
<path d="M10.5416 10.6403C11.731 6.99165 5.21101 5.09816 4.07538 9.36239C4.05442 9.44107 3.98734 9.50423 3.90742 9.51982C0.671027 10.1514 0.856676 14.6246 5.01231 14.3986C5.98579 14.3457 8.69033 14.4122 9.93805 14.4122C12.0521 14.5337 12.6324 12.9886 12.1237 11.9189C11.8864 11.4199 11.4119 11.0243 10.7455 10.9499C10.5993 10.9335 10.496 10.7802 10.5416 10.6403Z" stroke="white" stroke-width="1.5"/>
</svg>
